<svg width="71" height="63" viewBox="0 0 71 63" fill="none" xmlns="http://www.w3.org/2000/svg">
<g filter="url(#filter0_d_73_2226)">
<rect x="4.41663" y="0.215576" width="62.4833" height="54.6471" rx="10" fill="white"/>
<rect x="4.91663" y="0.715576" width="61.4833" height="53.6471" rx="9.5" stroke="#6295A8"/>
</g>
<path d="M29.3341 34.4664C29.3341 34.6947 29.4527 34.7282 29.7115 34.8024C30.0116 34.8878 30.1949 35.0103 30.1949 35.3352C30.1949 35.7158 29.9685 35.855 29.5641 35.855C29.3754 35.855 29.2371 35.8383 29.0969 35.8086L29.1203 35.6044C29.255 35.6248 29.424 35.6396 29.5552 35.6396C29.7816 35.6396 29.9397 35.5877 29.9397 35.3426C29.9397 35.1291 29.787 35.079 29.5821 35.014C29.2694 34.9175 29.0861 34.8284 29.0861 34.498C29.0861 34.1248 29.3036 34.0042 29.6935 34.0042C29.8607 34.0042 30.0314 34.0246 30.1554 34.0506L30.132 34.2492C30.0242 34.2325 29.8948 34.2158 29.7708 34.2158C29.5695 34.2176 29.3341 34.2381 29.3341 34.4664Z" fill="#165C7D"/>
<path d="M30.5435 34.0244H30.7897V35.8344H30.5435V34.0244Z" fill="#165C7D"/>
<path d="M31.3792 34.4664C31.3792 34.6947 31.4978 34.7282 31.7565 34.8024C32.0567 34.8878 32.24 35.0103 32.24 35.3352C32.24 35.7158 32.0135 35.855 31.6092 35.855C31.4205 35.855 31.2821 35.8383 31.1419 35.8086L31.1653 35.6044C31.3001 35.6248 31.469 35.6396 31.6002 35.6396C31.8266 35.6396 31.9848 35.5877 31.9848 35.3426C31.9848 35.1291 31.832 35.079 31.6272 35.014C31.3145 34.9175 31.1312 34.8284 31.1312 34.498C31.1312 34.1248 31.3486 34.0042 31.7386 34.0042C31.9057 34.0042 32.0764 34.0246 32.2004 34.0506L32.1771 34.2492C32.0692 34.2325 31.9398 34.2158 31.8158 34.2158C31.6146 34.2176 31.3792 34.2381 31.3792 34.4664Z" fill="#165C7D"/>
<path d="M33.6668 34.2286H33.2032V35.8344H32.9588V34.2286H32.4951V34.0244H33.6686V34.2286H33.6668Z" fill="#165C7D"/>
<path d="M34.9984 34.2268H34.5456C34.2598 34.2268 34.2113 34.2825 34.2113 34.5424V34.8134H34.9643V35.0139H34.2113V35.3184C34.2113 35.5783 34.2598 35.634 34.5456 35.634H34.9984V35.8289C34.8637 35.8345 34.6821 35.84 34.5528 35.84C34.2491 35.84 33.9669 35.8233 33.9669 35.4279V34.4347C33.9669 34.0393 34.2491 34.0208 34.5528 34.0208C34.6696 34.0208 34.8619 34.0263 34.9984 34.0319V34.2268Z" fill="#165C7D"/>
<path d="M36.2312 35.2739L36.6967 34.1675C36.7416 34.0598 36.8081 34.0078 36.8818 34.0078C36.9878 34.0078 37.0363 34.0635 37.0417 34.1879L37.1244 35.8382H36.8854L36.8153 34.381L36.3714 35.4799C36.3408 35.5561 36.2977 35.595 36.233 35.595C36.1665 35.595 36.1216 35.5561 36.0911 35.4799L35.6454 34.3847L35.5735 35.8401H35.3453L35.4315 34.1897C35.4369 34.0654 35.4854 34.0115 35.5915 34.0115C35.6634 34.0115 35.7298 34.0598 35.7748 34.1675L36.2312 35.2739Z" fill="#165C7D"/>
<path d="M37.4335 35.8344L38.0049 34.1785C38.0463 34.0597 38.1146 34.0059 38.2098 34.0059C38.3033 34.0059 38.3733 34.0616 38.4129 34.1785L38.9754 35.8344H38.7148L38.5494 35.3332H37.8486L37.6851 35.8344H37.4335ZM38.4866 35.1364L38.199 34.2639L37.9133 35.1364H38.4866Z" fill="#165C7D"/>
<path d="M39.9655 34.0505C40.1165 34.0245 40.3159 34.0078 40.51 34.0078C41.1606 34.0078 41.2738 34.316 41.2738 34.9323C41.2738 35.5468 41.1588 35.8549 40.51 35.8549C40.3159 35.8549 40.1147 35.8364 39.9655 35.8104V34.0505ZM40.2099 34.2324V35.6266C40.2836 35.6359 40.3752 35.647 40.4597 35.647C41.0258 35.647 41.0294 35.337 41.0294 34.9304C41.0294 34.5239 41.0258 34.2139 40.4597 34.2139C40.3752 34.2139 40.2836 34.2232 40.2099 34.2324Z" fill="#165C7D"/>
<path d="M42.6934 34.2268H42.2406C41.9548 34.2268 41.9063 34.2825 41.9063 34.5424V34.8134H42.6593V35.0139H41.9063V35.3184C41.9063 35.5783 41.9548 35.634 42.2406 35.634H42.6934V35.8289C42.5605 35.8345 42.3772 35.84 42.2478 35.84C41.9441 35.84 41.6619 35.8233 41.6619 35.4279V34.4347C41.6619 34.0393 41.9441 34.0208 42.2478 34.0208C42.3646 34.0208 42.5569 34.0263 42.6934 34.0319V34.2268Z" fill="#165C7D"/>
<path d="M44.8446 35.8084C44.7331 35.8344 44.5894 35.853 44.4258 35.853C43.8544 35.853 43.716 35.5727 43.716 34.9304C43.716 34.2862 43.8562 34.0059 44.4258 34.0059C44.5876 34.0059 44.7313 34.0244 44.8446 34.0504L44.8212 34.2472C44.7188 34.2305 44.6073 34.2175 44.4977 34.2175C43.991 34.2175 43.9658 34.4904 43.9658 34.9285C43.9658 35.3685 43.9963 35.6395 44.4977 35.6395C44.6091 35.6395 44.7188 35.6284 44.823 35.6117L44.8446 35.8084Z" fill="#165C7D"/>
<path d="M45.0889 34.9304C45.0889 34.275 45.2417 34.0059 45.7754 34.0059C46.3091 34.0059 46.4601 34.2732 46.4601 34.9304C46.4601 35.5857 46.3091 35.853 45.7754 35.853C45.2417 35.853 45.0889 35.5857 45.0889 34.9304ZM46.2121 34.9304C46.2121 34.5089 46.1977 34.2156 45.7754 34.2156C45.3531 34.2156 45.3387 34.5089 45.3387 34.9304C45.3387 35.3499 45.3513 35.6451 45.7754 35.6451C46.1959 35.6451 46.2121 35.3499 46.2121 34.9304Z" fill="#165C7D"/>
<path d="M46.8123 34.9304C46.8123 34.275 46.9651 34.0059 47.4988 34.0059C48.0325 34.0059 48.1835 34.2732 48.1835 34.9304C48.1835 35.5857 48.0325 35.853 47.4988 35.853C46.9651 35.853 46.8123 35.5857 46.8123 34.9304ZM47.9355 34.9304C47.9355 34.5089 47.9211 34.2156 47.4988 34.2156C47.0765 34.2156 47.0621 34.5089 47.0621 34.9304C47.0621 35.3499 47.0747 35.6451 47.4988 35.6451C47.9193 35.6451 47.9355 35.3499 47.9355 34.9304Z" fill="#165C7D"/>
<path d="M48.825 35.8344H48.5806V34.0504C48.7298 34.0244 48.9311 34.0059 49.1269 34.0059C49.5061 34.0059 49.8152 34.0838 49.8152 34.5591C49.8152 35.0232 49.5385 35.1253 49.1467 35.1253C49.0551 35.1253 48.9077 35.1197 48.825 35.1141V35.8344ZM48.825 34.9099C48.94 34.9229 49.0317 34.9248 49.1269 34.9248C49.4127 34.9248 49.5726 34.8524 49.5726 34.5591C49.5726 34.3066 49.4594 34.2064 49.1359 34.2064C49.0443 34.2064 48.9329 34.2119 48.825 34.2268V34.9099Z" fill="#165C7D"/>
<path d="M51.181 34.2268H50.7281C50.4424 34.2268 50.3939 34.2825 50.3939 34.5424V34.8134H51.1468V35.0139H50.3939V35.3184C50.3939 35.5783 50.4424 35.634 50.7281 35.634H51.181V35.8289C51.048 35.8345 50.8647 35.84 50.7353 35.84C50.4316 35.84 50.1495 35.8233 50.1495 35.4279V34.4347C50.1495 34.0393 50.4316 34.0208 50.7353 34.0208C50.8521 34.0208 51.0444 34.0263 51.181 34.0319V34.2268Z" fill="#165C7D"/>
<path d="M51.5439 35.8344V34.0504C51.6949 34.0244 51.8962 34.0059 52.0903 34.0059C52.4676 34.0059 52.7785 34.0801 52.7785 34.5535C52.7785 34.8969 52.6222 35.038 52.3796 35.0881L52.8001 35.8363H52.5144L52.1244 35.1123H52.1118C52.0202 35.1123 51.8746 35.1049 51.7901 35.1011V35.8363H51.5439V35.8344ZM51.7883 34.8951C51.9034 34.9081 51.995 34.9099 52.0885 34.9099C52.3706 34.9099 52.5341 34.8375 52.5341 34.5535C52.5341 34.3029 52.4191 34.2064 52.0974 34.2064C52.0058 34.2064 51.8944 34.2138 51.7883 34.2286V34.8951Z" fill="#165C7D"/>
<path d="M53.0804 35.8344L53.6519 34.1785C53.6932 34.0597 53.7615 34.0059 53.8568 34.0059C53.9502 34.0059 54.0203 34.0616 54.0598 34.1785L54.6223 35.8344H54.3618L54.1964 35.3332H53.4956L53.332 35.8344H53.0804ZM54.1335 35.1364L53.846 34.2639L53.5603 35.1364H54.1335Z" fill="#165C7D"/>
<path d="M55.7437 34.2286H55.2801V35.8344H55.0339V34.2286H54.5703V34.0244H55.7437V34.2286Z" fill="#165C7D"/>
<path d="M56.06 34.0244H56.3062V35.8344H56.06V34.0244Z" fill="#165C7D"/>
<path d="M57.5462 35.6807C57.5048 35.8032 57.4455 35.8552 57.3539 35.8552C57.2622 35.8552 57.2029 35.8051 57.1616 35.6807L56.6207 34.0266H56.8812L57.3575 35.5544L57.8391 34.0266H58.0889L57.5462 35.6807Z" fill="#165C7D"/>
<path d="M58.017 35.8344L58.5885 34.1785C58.6298 34.0597 58.6981 34.0059 58.7934 34.0059C58.8868 34.0059 58.9569 34.0616 58.9964 34.1785L59.5589 35.8344H59.2983L59.133 35.3332H58.4321L58.2686 35.8344H58.017ZM59.0701 35.1364L58.7826 34.2639L58.4968 35.1364H59.0701Z" fill="#165C7D"/>
<path d="M60.0208 34.4664C60.0208 34.6947 60.1394 34.7282 60.3981 34.8024C60.6983 34.8878 60.8816 35.0103 60.8816 35.3352C60.8816 35.7158 60.6551 35.855 60.2508 35.855C60.0621 35.855 59.9237 35.8383 59.7835 35.8086L59.8069 35.6044C59.9417 35.6248 60.1106 35.6396 60.2418 35.6396C60.4682 35.6396 60.6264 35.5877 60.6264 35.3426C60.6264 35.1291 60.4736 35.079 60.2688 35.014C59.9561 34.9175 59.7728 34.8284 59.7728 34.498C59.7728 34.1248 59.9902 34.0042 60.3802 34.0042C60.5473 34.0042 60.718 34.0246 60.842 34.0506L60.8187 34.2492C60.7108 34.2325 60.5814 34.2158 60.4574 34.2158C60.258 34.2176 60.0208 34.2381 60.0208 34.4664Z" fill="#165C7D"/>
<path d="M29.1095 31.3715L31.6667 23.6376C31.9542 22.7688 32.4197 22.3994 33.081 22.3994C33.7226 22.3994 34.206 22.793 34.4827 23.6376L36.995 31.3715H35.1422L34.4863 29.1716H31.5535L30.912 31.3715H29.1095ZM34.0766 27.7886L33.0073 24.1983L31.956 27.7886H34.0766Z" fill="#165C7D"/>
<path d="M37.9834 22.4907H39.7319V31.3737H37.9834V22.4907Z" fill="#165C7D"/>
<path d="M46.6309 31.3347C46.0217 31.3607 44.9704 31.3959 44.4313 31.3959C42.8786 31.3959 41.4464 31.3087 41.4464 29.2276V22.4907H43.1949V28.7227C43.1949 29.7103 43.3674 29.9312 44.3971 29.9312H46.6291V31.3347H46.6309Z" fill="#165C7D"/>
<path d="M47.4036 26.9311C47.4036 23.7139 48.1674 22.3977 50.8432 22.3977C53.5154 22.3977 54.2792 23.7139 54.2792 26.9311C54.2792 30.1482 53.5154 31.4644 50.8432 31.4644C48.1674 31.4644 47.4036 30.1482 47.4036 26.9311ZM52.5073 26.9311C52.5073 25.1211 52.4695 23.881 50.8432 23.881C49.2115 23.881 49.1755 25.1192 49.1755 26.9311C49.1755 28.7411 49.2133 29.9774 50.8432 29.9774C52.4695 29.9774 52.5073 28.7411 52.5073 26.9311Z" fill="#165C7D"/>
<path d="M57.1742 24.7851C57.1742 25.678 57.7637 25.7987 58.7538 26.0734C60.3999 26.5338 61.108 27.191 61.108 28.7986C61.108 30.759 59.9525 31.4626 57.9164 31.4626C56.9496 31.4626 56.1337 31.3438 55.4329 31.1878L55.6018 29.7658C56.2326 29.8605 57.1922 29.9644 57.8535 29.9644C58.7574 29.9644 59.3109 29.7547 59.3109 28.8636C59.3109 28.0356 58.6802 27.85 57.8823 27.5975C56.3404 27.1093 55.4329 26.6173 55.4329 24.941C55.4329 23.0159 56.5327 22.3977 58.5112 22.3977C59.4223 22.3977 60.3604 22.5388 60.9732 22.6762L60.8151 24.0592C60.258 23.9682 59.5643 23.8643 58.9228 23.8643C58.2255 23.8661 57.1742 23.8977 57.1742 24.7851Z" fill="#165C7D"/>
<path d="M23.0372 27.991L21.3749 23.7862C21.2114 23.3964 21.0892 23.1179 20.8394 23.1179C20.586 23.1198 20.4674 23.4131 20.3165 23.7844L19.3047 26.2107L18.3056 23.7862C18.1546 23.4131 18.0342 23.1198 17.7826 23.1179C17.5346 23.1198 17.4124 23.3964 17.2453 23.7918L15.5848 27.9947C15.4734 28.2899 15.4931 28.5869 15.6405 28.8078C15.7879 29.0306 16.0484 29.1587 16.3539 29.1587H17.0853L17.0889 30.1166C17.0889 30.46 17.3603 30.7403 17.6928 30.7403H17.903C18.2355 30.7403 18.5068 30.46 18.5068 30.1166V29.6469C18.5068 29.6302 18.5068 29.6135 18.505 29.5968V29.1587H19.24C19.2652 29.1587 19.2885 29.1568 19.3119 29.155C19.3353 29.1568 19.3568 29.1587 19.382 29.1587H20.117V29.5968C20.1152 29.6135 20.1152 29.6302 20.1152 29.6469V30.1166C20.1152 30.46 20.3866 30.7403 20.719 30.7403H20.9293C21.2617 30.7403 21.5331 30.46 21.5331 30.1166L21.5367 29.1587H22.2681C22.5754 29.1587 22.8342 29.0306 22.9815 28.8078C23.1289 28.5869 23.1504 28.2899 23.0372 27.991ZM18.6093 28.6946H18.0558L18.0576 30.1184C18.0576 30.2057 17.9893 30.2762 17.9048 30.2762H17.6946C17.6101 30.2762 17.5418 30.2057 17.5418 30.1184L17.5382 29.5504V28.6964H16.3557C16.1976 28.6964 16.0772 28.6445 16.0143 28.5498C15.9514 28.4551 15.9478 28.3196 16.0053 28.1711L17.6622 23.9756C17.6838 23.9236 17.7341 23.8066 17.7808 23.7101C17.8114 23.7769 17.8491 23.8642 17.8922 23.9719L19.0621 26.8122L18.6146 28.0003C18.5212 28.2435 18.5194 28.4885 18.6093 28.6946ZM19.5887 28.5368C19.5383 28.6203 19.4395 28.6723 19.3137 28.6872C19.1861 28.6723 19.0891 28.6203 19.037 28.5368C18.9795 28.4421 18.9795 28.3103 19.0334 28.1636L19.3083 27.4359L19.5905 28.1636C19.6462 28.3122 19.6462 28.444 19.5887 28.5368ZM22.6095 28.5461C22.5466 28.6407 22.4244 28.6927 22.2681 28.6927H21.0856L21.082 30.1166C21.082 30.2038 21.0137 30.2744 20.9293 30.2744H20.7208C20.6363 30.2744 20.5681 30.2038 20.5681 30.1166L20.5699 28.6927H20.0182C20.108 28.4867 20.1062 28.2435 20.011 27.9947L19.5491 26.8066L20.7334 23.9663C20.7765 23.8586 20.8143 23.7732 20.8448 23.7064C20.8915 23.8029 20.94 23.918 20.9598 23.9682L22.6185 28.1655C22.676 28.3159 22.6724 28.4514 22.6095 28.5461Z" fill="#165C7D"/>
<path d="M23.9285 31.1953C22.7766 32.4743 21.1341 33.2726 19.3101 33.2726C19.1178 33.2726 18.9273 33.2633 18.7386 33.2447C18.1779 33.3988 17.5903 33.4805 16.9829 33.4805C16.1706 33.4805 15.3907 33.3338 14.6683 33.0628C15.9136 34.7354 17.8706 35.8122 20.072 35.8122C23.8369 35.8122 26.8865 32.6618 26.8865 28.7745C26.8865 28.4608 26.8667 28.1507 26.8272 27.8481C26.2378 29.2664 25.2134 30.4397 23.9285 31.1953Z" fill="url(#paint0_linear_73_2226)"/>
<path d="M20.3722 20.3374C22.3992 20.6919 24.0957 22.0453 24.9744 23.8887C25.9628 24.945 26.6331 26.3206 26.829 27.8521C27.1848 27 27.3807 26.0607 27.3807 25.0731C27.3807 21.1857 24.3293 18.0354 20.5662 18.0354C19.0423 18.0354 17.6352 18.5515 16.5013 19.424C16.6612 19.4129 16.823 19.4054 16.9847 19.4054C18.2157 19.4073 19.373 19.7452 20.3722 20.3374Z" fill="url(#paint1_linear_73_2226)"/>
<path d="M25.6178 26.7601C25.6178 28.4736 24.9762 30.033 23.9285 31.197C25.2152 30.4414 26.2396 29.2682 26.8272 27.8536C26.6331 26.3239 25.961 24.9483 24.9726 23.8901C25.3859 24.7552 25.6178 25.7298 25.6178 26.7601Z" fill="#886B25"/>
<path d="M13.2576 28.6017C13.0904 28.0169 13.0006 27.3987 13.0006 26.7583C13.0006 25.4829 13.3564 24.293 13.9692 23.2886C14.3664 21.72 15.2739 20.3648 16.4977 19.4236C12.9593 19.6798 10.1666 22.7243 10.1666 26.4445C10.1666 29.4928 12.0428 32.088 14.6665 33.0664C13.7823 31.8783 13.2558 30.3931 13.2558 28.778C13.2558 28.7186 13.2558 28.6611 13.2576 28.6017Z" fill="url(#paint2_linear_73_2226)"/>
<path d="M18.7368 33.2468C16.1275 33.0036 13.9746 31.1212 13.2576 28.6021C13.2558 28.6596 13.2558 28.719 13.2558 28.7784C13.2558 30.3916 13.7823 31.8786 14.6665 33.0667C15.3889 33.3359 16.1688 33.4844 16.9811 33.4844C17.5885 33.4826 18.178 33.4009 18.7368 33.2468Z" fill="#007D8A"/>
<path d="M13.9692 23.2887C15.087 21.4602 17.0602 20.2442 19.3083 20.2442C19.6695 20.2442 20.0253 20.2758 20.3704 20.337C19.3712 19.7448 18.2139 19.407 16.9811 19.407C16.8194 19.407 16.6576 19.4126 16.4977 19.4255C15.2739 20.3649 14.3664 21.7201 13.9692 23.2887Z" fill="#007041"/>
<defs>
<filter id="filter0_d_73_2226" x="0.416626" y="0.215576" width="70.4833" height="62.647" filterUnits="userSpaceOnUse" color-interpolation-filters="sRGB">
<feFlood flood-opacity="0" result="BackgroundImageFix"/>
<feColorMatrix in="SourceAlpha" type="matrix" values="0 0 0 0 0 0 0 0 0 0 0 0 0 0 0 0 0 0 127 0" result="hardAlpha"/>
<feOffset dy="4"/>
<feGaussianBlur stdDeviation="2"/>
<feComposite in2="hardAlpha" operator="out"/>
<feColorMatrix type="matrix" values="0 0 0 0 0 0 0 0 0 0 0 0 0 0 0 0 0 0 0.25 0"/>
<feBlend mode="normal" in2="BackgroundImageFix" result="effect1_dropShadow_73_2226"/>
<feBlend mode="normal" in="SourceGraphic" in2="effect1_dropShadow_73_2226" result="shape"/>
</filter>
<linearGradient id="paint0_linear_73_2226" x1="14.6666" y1="31.8342" x2="26.886" y2="31.8342" gradientUnits="userSpaceOnUse">
<stop stop-color="#00A9CE"/>
<stop offset="0.411" stop-color="#00A7CB"/>
<stop offset="0.6581" stop-color="#009FC3"/>
<stop offset="0.8612" stop-color="#0091B5"/>
<stop offset="1" stop-color="#0083A6"/>
</linearGradient>
<linearGradient id="paint1_linear_73_2226" x1="16.4984" y1="22.9438" x2="27.3794" y2="22.9438" gradientUnits="userSpaceOnUse">
<stop stop-color="#FFA300"/>
<stop offset="0.3498" stop-color="#FCA200"/>
<stop offset="0.5601" stop-color="#F49D00"/>
<stop offset="0.7336" stop-color="#E69600"/>
<stop offset="0.8861" stop-color="#D28B00"/>
<stop offset="1" stop-color="#BD8000"/>
</linearGradient>
<linearGradient id="paint2_linear_73_2226" x1="10.1665" y1="26.2451" x2="16.4984" y2="26.2451" gradientUnits="userSpaceOnUse">
<stop stop-color="#00B140"/>
<stop offset="0.3902" stop-color="#00AE40"/>
<stop offset="0.6248" stop-color="#01A63E"/>
<stop offset="0.8176" stop-color="#02983B"/>
<stop offset="0.9878" stop-color="#038437"/>
<stop offset="1" stop-color="#038237"/>
</linearGradient>
</defs>
</svg>
