<svg width="12" height="12" viewBox="0 0 12 12" fill="none" xmlns="http://www.w3.org/2000/svg">
<path d="M5.92414 0.886963C8.90219 0.89053 11.3154 3.29346 11.319 6.25845V6.2588C11.319 6.26424 11.319 6.27066 11.319 6.27709C11.319 7.58815 10.8412 8.78807 10.0496 9.71367L10.0558 9.7062L11.819 11.6306H5.92414C2.94465 11.6306 0.529297 9.22557 0.529297 6.25879C0.529297 3.29201 2.94465 0.886963 5.92414 0.886963ZM10.0295 10.8445L8.98158 9.69886L9.24 9.43368C10.0376 8.61913 10.5295 7.50461 10.5295 6.27569C10.5295 6.26975 10.5295 6.26381 10.5295 6.25786V6.2588C10.5295 3.72616 8.46762 1.67309 5.92414 1.67309C3.38066 1.67309 1.31879 3.72617 1.31879 6.25879C1.31879 8.79142 3.38067 10.8445 5.92414 10.8445H10.0295Z" fill="#5D5D5D"/>
</svg>
