<svg width="15" height="13" viewBox="0 0 15 13" fill="none" xmlns="http://www.w3.org/2000/svg">
<path d="M13.9525 5.89835L8.68397 0.652286C8.59188 0.560576 8.47455 0.498118 8.34681 0.472811C8.21907 0.447503 8.08666 0.460484 7.96633 0.51011C7.84599 0.559736 7.74314 0.643779 7.67078 0.75161C7.59842 0.859441 7.5598 0.986218 7.5598 1.11591V3.44052C5.76079 3.60632 4.08866 4.43461 2.87062 5.76329C1.65258 7.09197 0.9763 8.82541 0.974121 10.6244V11.608C0.974111 11.7442 1.01668 11.877 1.09592 11.988C1.17517 12.099 1.28715 12.1827 1.41633 12.2274C1.5455 12.2722 1.68547 12.2758 1.81678 12.2377C1.9481 12.1996 2.06425 12.1218 2.14912 12.015C2.79429 11.251 3.58589 10.6227 4.47768 10.1668C5.36947 9.71084 6.34357 9.43645 7.34306 9.35963C7.37586 9.35547 7.45818 9.34907 7.5598 9.34266V11.608C7.5598 11.7377 7.59842 11.8645 7.67078 11.9723C7.74314 12.0802 7.84599 12.1642 7.96633 12.2138C8.08666 12.2635 8.21907 12.2764 8.34681 12.2511C8.47455 12.2258 8.59188 12.1634 8.68397 12.0717L13.9525 6.82559C14.0137 6.76472 14.0622 6.69244 14.0953 6.61289C14.1284 6.53334 14.1454 6.44808 14.1454 6.36197C14.1454 6.27586 14.1284 6.1906 14.0953 6.11105C14.0622 6.0315 14.0137 5.95922 13.9525 5.89835ZM8.87693 10.025V8.65712C8.87696 8.571 8.85994 8.48572 8.82685 8.40615C8.79376 8.32658 8.74525 8.25428 8.68409 8.19338C8.62294 8.13249 8.55033 8.08418 8.47042 8.05124C8.3905 8.01829 8.30486 8.00134 8.21837 8.00137C8.05051 8.00137 7.36493 8.03371 7.19 8.05711C5.41489 8.2199 3.72519 8.89142 2.32534 9.99041C2.48414 8.54402 3.1732 7.20679 4.26055 6.2348C5.3479 5.2628 6.75713 4.72436 8.21837 4.72258C8.30486 4.7226 8.3905 4.70565 8.47042 4.6727C8.55033 4.63976 8.62294 4.59146 8.68409 4.53056C8.74525 4.46966 8.79376 4.39736 8.82685 4.31779C8.85994 4.23822 8.87696 4.15294 8.87693 4.06682V2.69895L12.5557 6.36197L8.87693 10.025Z" fill="#5D5D5D"/>
</svg>
