<svg width="15" height="14" viewBox="0 0 15 14" fill="none" xmlns="http://www.w3.org/2000/svg">
<path d="M10.436 12.6443H2.16234C1.94075 12.6443 1.76111 12.4655 1.76111 12.2448V5.71934C1.76111 5.4987 1.94075 5.31983 2.16234 5.31983H4.0131C4.48289 5.31983 4.91823 5.07439 5.15993 4.67326L6.97243 1.6653C7.36356 1.01626 8.28472 0.954563 8.75958 1.54561C8.9834 1.8242 9.05555 2.19449 8.95257 2.53622L8.26887 4.80551C8.19163 5.06184 8.38443 5.31983 8.65318 5.31983H11.7126C12.5945 5.31983 13.235 6.15482 13.0029 7.00193L11.7263 11.663C11.5676 12.2424 11.0391 12.6443 10.436 12.6443Z" stroke="#5D5D5D" stroke-width="2" stroke-linecap="round"/>
<path d="M4.10168 12.6443V5.31982" stroke="#5D5D5D" stroke-width="2" stroke-linecap="round" stroke-linejoin="round"/>
</svg>
