<svg width="46" height="42" viewBox="0 0 46 42" fill="none" xmlns="http://www.w3.org/2000/svg">
<path d="M43.5273 5.34545H35.1273V0H32.0727V5.34545H13.7455V0H10.6909V5.34545H2.29091C1.68354 5.34616 1.10125 5.58775 0.671773 6.01723C0.242298 6.4467 0.000707361 7.02899 0 7.63636V39.7091C0.000707361 40.3165 0.242298 40.8988 0.671773 41.3282C1.10125 41.7577 1.68354 41.9993 2.29091 42H43.5273C44.1346 41.9993 44.7169 41.7577 45.1464 41.3282C45.5759 40.8988 45.8175 40.3165 45.8182 39.7091V7.63636C45.8175 7.02899 45.5759 6.4467 45.1464 6.01723C44.7169 5.58775 44.1346 5.34616 43.5273 5.34545ZM42.7636 38.9455H3.05455V8.4H10.6909V12.2182H13.7455V8.4H32.0727V12.2182H35.1273V8.4H42.7636V38.9455Z" fill="white"/>
<path d="M12.2182 17.5637H9.1637V20.6183H12.2182V17.5637Z" fill="white"/>
<path d="M20.6183 17.5637H17.5637V20.6183H20.6183V17.5637Z" fill="white"/>
<path d="M28.2545 17.5637H25.2V20.6183H28.2545V17.5637Z" fill="white"/>
<path d="M36.6545 17.5637H33.6V20.6183H36.6545V17.5637Z" fill="white"/>
<path d="M12.2182 24.4365H9.1637V27.4911H12.2182V24.4365Z" fill="white"/>
<path d="M20.6183 24.4365H17.5637V27.4911H20.6183V24.4365Z" fill="white"/>
<path d="M28.2545 24.4365H25.2V27.4911H28.2545V24.4365Z" fill="white"/>
<path d="M36.6545 24.4365H33.6V27.4911H36.6545V24.4365Z" fill="white"/>
<path d="M12.2182 31.3091H9.1637V34.3636H12.2182V31.3091Z" fill="white"/>
<path d="M20.6183 31.3091H17.5637V34.3636H20.6183V31.3091Z" fill="white"/>
<path d="M28.2545 31.3091H25.2V34.3636H28.2545V31.3091Z" fill="white"/>
<path d="M36.6545 31.3091H33.6V34.3636H36.6545V31.3091Z" fill="white"/>
</svg>
