<svg width="66" height="66" viewBox="0 0 66 66" fill="none" xmlns="http://www.w3.org/2000/svg">
<path d="M38.0325 52.2499C37.6217 52.2513 37.2158 52.1606 36.8446 51.9846C36.4734 51.8085 36.1463 51.5515 35.8875 51.2324L22.605 34.7324C22.2005 34.2403 21.9794 33.6231 21.9794 32.9862C21.9794 32.3492 22.2005 31.732 22.605 31.2399L36.355 14.7399C36.8218 14.1783 37.4926 13.8251 38.2197 13.7581C38.9469 13.6911 39.6709 13.9156 40.2325 14.3824C40.7941 14.8492 41.1473 15.5199 41.2143 16.2471C41.2814 16.9743 41.0568 17.6983 40.59 18.2599L28.2975 32.9999L40.1775 47.7399C40.5138 48.1436 40.7274 48.6351 40.7931 49.1564C40.8588 49.6776 40.7737 50.2068 40.5481 50.6812C40.3224 51.1557 39.9656 51.5556 39.5198 51.8336C39.074 52.1116 38.5579 52.256 38.0325 52.2499Z" fill="white"/>
</svg>
