<svg width="30" height="29" viewBox="0 0 30 29" fill="none" xmlns="http://www.w3.org/2000/svg">
<path d="M14.3357 0C22.2492 0.00951978 28.6618 6.42215 28.6713 14.3348V14.3357C28.6714 14.3502 28.6714 14.3673 28.6714 14.3845C28.6714 17.8833 27.4018 21.0855 25.2981 23.5556L25.3147 23.5357L30 28.6713H14.3357C6.41829 28.6713 0 22.253 0 14.3357C0 6.41829 6.41829 0 14.3357 0ZM25.2448 26.5734L22.4601 23.5161L23.1469 22.8084C25.2663 20.6346 26.5735 17.6604 26.5735 14.3808C26.5735 14.3649 26.5735 14.349 26.5734 14.3332V14.3357C26.5734 7.5769 21.0944 2.09791 14.3357 2.09791C7.5769 2.09791 2.09791 7.57693 2.09791 14.3357C2.09791 21.0944 7.57693 26.5734 14.3357 26.5734H25.2448Z" fill="#5D5D5D"/>
</svg>
