<svg width="90" height="83" viewBox="0 0 90 83" fill="none" xmlns="http://www.w3.org/2000/svg">
<path d="M10.752 79.0566V81H3.20312V79.0566H10.752ZM3.89648 66.7812V81H1.44531V66.7812H3.89648ZM9.76562 72.7188V74.6328H3.20312V72.7188H9.76562ZM10.7031 66.7812V68.7344H3.20312V66.7812H10.7031ZM16.9031 79.1348L19.491 70.4336H21.9324L18.2605 81H16.7371L16.9031 79.1348ZM14.9207 70.4336L17.5574 79.1738L17.6844 81H16.1609L12.4695 70.4336H14.9207ZM29.109 81.1953C28.3277 81.1953 27.6214 81.0684 26.9898 80.8145C26.3648 80.554 25.831 80.1927 25.3883 79.7305C24.9521 79.2682 24.6168 78.7246 24.3824 78.0996C24.148 77.4746 24.0309 76.8008 24.0309 76.0781V75.6875C24.0309 74.8607 24.1513 74.112 24.3922 73.4414C24.6331 72.7708 24.9684 72.1979 25.398 71.7227C25.8277 71.2409 26.3355 70.873 26.9215 70.6191C27.5074 70.3652 28.1422 70.2383 28.8258 70.2383C29.581 70.2383 30.2418 70.3652 30.8082 70.6191C31.3746 70.873 31.8434 71.2311 32.2145 71.6934C32.5921 72.1491 32.872 72.6927 33.0543 73.3242C33.2431 73.9557 33.3375 74.6523 33.3375 75.4141V76.4199H25.1734V74.7305H31.0133V74.5449C31.0003 74.1217 30.9156 73.7246 30.7594 73.3535C30.6096 72.9824 30.3785 72.6829 30.066 72.4551C29.7535 72.2272 29.3368 72.1133 28.816 72.1133C28.4254 72.1133 28.0771 72.1979 27.7711 72.3672C27.4716 72.5299 27.221 72.7676 27.0191 73.0801C26.8173 73.3926 26.6611 73.7702 26.5504 74.2129C26.4462 74.6491 26.3941 75.1406 26.3941 75.6875V76.0781C26.3941 76.5404 26.456 76.9701 26.5797 77.3672C26.7099 77.7578 26.8987 78.0996 27.1461 78.3926C27.3935 78.6855 27.693 78.9167 28.0445 79.0859C28.3961 79.2487 28.7965 79.3301 29.2457 79.3301C29.8121 79.3301 30.3167 79.2161 30.7594 78.9883C31.2021 78.7604 31.5862 78.4382 31.9117 78.0215L33.152 79.2227C32.9241 79.5547 32.6279 79.8737 32.2633 80.1797C31.8987 80.4792 31.4527 80.7233 30.9254 80.9121C30.4046 81.1009 29.7991 81.1953 29.109 81.1953ZM38.7074 72.6895V81H36.3539V70.4336H38.5707L38.7074 72.6895ZM38.2875 75.3262L37.5258 75.3164C37.5323 74.5677 37.6365 73.8809 37.8383 73.2559C38.0466 72.6309 38.3331 72.0938 38.6977 71.6445C39.0687 71.1953 39.5115 70.8503 40.0258 70.6094C40.5401 70.362 41.113 70.2383 41.7445 70.2383C42.2523 70.2383 42.7113 70.3099 43.1215 70.4531C43.5381 70.5898 43.893 70.8145 44.1859 71.127C44.4854 71.4395 44.7133 71.8464 44.8695 72.3477C45.0258 72.8424 45.1039 73.4512 45.1039 74.1738V81H42.7406V74.1641C42.7406 73.6562 42.6658 73.2559 42.516 72.9629C42.3728 72.6634 42.1612 72.4518 41.8812 72.3281C41.6078 72.1979 41.266 72.1328 40.8559 72.1328C40.4522 72.1328 40.0909 72.2174 39.7719 72.3867C39.4529 72.556 39.1827 72.7871 38.9613 73.0801C38.7465 73.373 38.5805 73.7116 38.4633 74.0957C38.3461 74.4798 38.2875 74.89 38.2875 75.3262ZM53.55 70.4336V72.1523H47.593V70.4336H53.55ZM49.3117 67.8457H51.6652V78.0801C51.6652 78.4056 51.7108 78.6562 51.802 78.832C51.8996 79.0013 52.0331 79.1152 52.2023 79.1738C52.3716 79.2324 52.5702 79.2617 52.798 79.2617C52.9608 79.2617 53.1171 79.252 53.2668 79.2324C53.4165 79.2129 53.537 79.1934 53.6281 79.1738L53.6379 80.9707C53.4426 81.0293 53.2147 81.0814 52.9543 81.127C52.7004 81.1725 52.4074 81.1953 52.0754 81.1953C51.535 81.1953 51.0565 81.1009 50.6398 80.9121C50.2232 80.7168 49.8977 80.401 49.6633 79.9648C49.4289 79.5286 49.3117 78.9492 49.3117 78.2266V67.8457ZM55.8828 75.834V75.6094C55.8828 74.8477 55.9935 74.1413 56.2148 73.4902C56.4362 72.8327 56.7552 72.263 57.1719 71.7812C57.5951 71.293 58.1094 70.9154 58.7148 70.6484C59.3268 70.375 60.0169 70.2383 60.7852 70.2383C61.5599 70.2383 62.25 70.375 62.8555 70.6484C63.4674 70.9154 63.985 71.293 64.4082 71.7812C64.8314 72.263 65.1536 72.8327 65.375 73.4902C65.5964 74.1413 65.707 74.8477 65.707 75.6094V75.834C65.707 76.5957 65.5964 77.3021 65.375 77.9531C65.1536 78.6042 64.8314 79.1738 64.4082 79.6621C63.985 80.1439 63.4707 80.5215 62.8652 80.7949C62.2598 81.0618 61.5729 81.1953 60.8047 81.1953C60.0299 81.1953 59.3366 81.0618 58.7246 80.7949C58.1191 80.5215 57.6048 80.1439 57.1816 79.6621C56.7585 79.1738 56.4362 78.6042 56.2148 77.9531C55.9935 77.3021 55.8828 76.5957 55.8828 75.834ZM58.2363 75.6094V75.834C58.2363 76.3092 58.2852 76.7585 58.3828 77.1816C58.4805 77.6048 58.6335 77.9759 58.8418 78.2949C59.0501 78.6139 59.3171 78.8646 59.6426 79.0469C59.9681 79.2292 60.3555 79.3203 60.8047 79.3203C61.2409 79.3203 61.6185 79.2292 61.9375 79.0469C62.263 78.8646 62.5299 78.6139 62.7383 78.2949C62.9466 77.9759 63.0996 77.6048 63.1973 77.1816C63.3014 76.7585 63.3535 76.3092 63.3535 75.834V75.6094C63.3535 75.1406 63.3014 74.6979 63.1973 74.2812C63.0996 73.8581 62.9434 73.4837 62.7285 73.1582C62.5202 72.8327 62.2533 72.5788 61.9277 72.3965C61.6087 72.2077 61.2279 72.1133 60.7852 72.1133C60.3424 72.1133 59.9583 72.2077 59.6328 72.3965C59.3138 72.5788 59.0501 72.8327 58.8418 73.1582C58.6335 73.4837 58.4805 73.8581 58.3828 74.2812C58.2852 74.6979 58.2363 75.1406 58.2363 75.6094ZM74.8074 78.1387C74.8074 77.9043 74.7488 77.6927 74.6316 77.5039C74.5145 77.3086 74.2898 77.1328 73.9578 76.9766C73.6323 76.8203 73.1505 76.6771 72.5125 76.5469C71.9526 76.4232 71.4383 76.2767 70.9695 76.1074C70.5073 75.9316 70.1102 75.7201 69.7781 75.4727C69.4461 75.2253 69.1889 74.9323 69.0066 74.5938C68.8243 74.2552 68.7332 73.8646 68.7332 73.4219C68.7332 72.9922 68.8276 72.5853 69.0164 72.2012C69.2052 71.8171 69.4754 71.4785 69.827 71.1855C70.1785 70.8926 70.6049 70.6615 71.1062 70.4922C71.6141 70.3229 72.1805 70.2383 72.8055 70.2383C73.6909 70.2383 74.4493 70.388 75.0809 70.6875C75.7189 70.9805 76.2072 71.3809 76.5457 71.8887C76.8842 72.39 77.0535 72.9564 77.0535 73.5879H74.7C74.7 73.3079 74.6284 73.0475 74.4852 72.8066C74.3484 72.5592 74.1401 72.3607 73.8602 72.2109C73.5802 72.0547 73.2286 71.9766 72.8055 71.9766C72.4018 71.9766 72.0665 72.0417 71.7996 72.1719C71.5392 72.2956 71.3439 72.4583 71.2137 72.6602C71.09 72.862 71.0281 73.0833 71.0281 73.3242C71.0281 73.5 71.0607 73.6595 71.1258 73.8027C71.1974 73.9395 71.3146 74.0664 71.4773 74.1836C71.6401 74.2943 71.8615 74.3984 72.1414 74.4961C72.4279 74.5938 72.7859 74.6882 73.2156 74.7793C74.0229 74.9486 74.7163 75.1667 75.2957 75.4336C75.8816 75.694 76.3309 76.0326 76.6434 76.4492C76.9559 76.8594 77.1121 77.3802 77.1121 78.0117C77.1121 78.4805 77.0112 78.9102 76.8094 79.3008C76.6141 79.6849 76.3276 80.0202 75.95 80.3066C75.5724 80.5866 75.1199 80.8047 74.5926 80.9609C74.0717 81.1172 73.4858 81.1953 72.8348 81.1953C71.8777 81.1953 71.0672 81.026 70.4031 80.6875C69.7391 80.3424 69.2345 79.903 68.8895 79.3691C68.5509 78.8288 68.3816 78.2689 68.3816 77.6895H70.657C70.6831 78.1257 70.8035 78.474 71.0184 78.7344C71.2397 78.9883 71.5131 79.1738 71.8387 79.291C72.1707 79.4017 72.5125 79.457 72.8641 79.457C73.2872 79.457 73.6421 79.4017 73.9285 79.291C74.215 79.1738 74.4331 79.0176 74.5828 78.8223C74.7325 78.6204 74.8074 78.3926 74.8074 78.1387Z" fill="white"/>
<path d="M66.5616 7.46588H54.8295V0H50.5633V7.46588H24.966V0H20.6998V7.46588H8.96773C8.11943 7.46686 7.30616 7.80429 6.70632 8.40413C6.10648 9.00397 5.76905 9.81724 5.76807 10.6655V55.4608C5.76905 56.3091 6.10648 57.1224 6.70632 57.7222C7.30616 58.322 8.11943 58.6595 8.96773 58.6605H66.5616C67.4099 58.6595 68.2232 58.322 68.823 57.7222C69.4229 57.1224 69.7603 56.3091 69.7613 55.4608V10.6655C69.7603 9.81724 69.4229 9.00397 68.823 8.40413C68.2232 7.80429 67.4099 7.46686 66.5616 7.46588ZM65.4951 54.3942H10.0343V11.7321H20.6998V17.0649H24.966V11.7321H50.5633V17.0649H54.8295V11.7321H65.4951V54.3942Z" fill="white"/>
<path d="M22.833 24.5308H18.5668V28.797H22.833V24.5308Z" fill="white"/>
<path d="M34.5652 24.5308H30.299V28.797H34.5652V24.5308Z" fill="white"/>
<path d="M45.2306 24.5308H40.9644V28.797H45.2306V24.5308Z" fill="white"/>
<path d="M56.9625 24.5308H52.6963V28.797H56.9625V24.5308Z" fill="white"/>
<path d="M22.833 34.1301H18.5668V38.3963H22.833V34.1301Z" fill="white"/>
<path d="M34.5652 34.1301H30.299V38.3963H34.5652V34.1301Z" fill="white"/>
<path d="M45.2306 34.1301H40.9644V38.3963H45.2306V34.1301Z" fill="white"/>
<path d="M56.9625 34.1301H52.6963V38.3963H56.9625V34.1301Z" fill="white"/>
<path d="M22.833 43.7286H18.5668V47.9949H22.833V43.7286Z" fill="white"/>
<path d="M34.5652 43.7286H30.299V47.9949H34.5652V43.7286Z" fill="white"/>
<path d="M45.2306 43.7286H40.9644V47.9949H45.2306V43.7286Z" fill="white"/>
<path d="M56.9625 43.7286H52.6963V47.9949H56.9625V43.7286Z" fill="white"/>
</svg>
