<svg width="35" height="35" viewBox="0 0 35 35" fill="none" xmlns="http://www.w3.org/2000/svg">
<path d="M17.5 0C7.83563 0 0 7.83563 0 17.5C0 27.1644 7.83563 35 17.5 35C27.1644 35 35 27.1644 35 17.5C35 7.83563 27.1644 0 17.5 0ZM23.5973 11.6667H21.0758C19.5067 11.6667 18.9583 12.495 18.9583 14.1721V16.0417H23.5579L22.9338 20.4167H18.9583V32.0104C18.4785 32.0571 17.9929 32.0833 17.5 32.0833C16.501 32.0833 15.5254 31.9813 14.5833 31.7902V20.4167H10.2083V16.0417H14.5833V13.6923C14.5833 9.24438 16.7504 7.29167 20.4473 7.29167C22.2177 7.29167 23.154 7.42292 23.5973 7.48271V11.6667Z" fill="#565656"/>
</svg>
