<svg width="513" height="158" viewBox="0 0 513 158" fill="none" xmlns="http://www.w3.org/2000/svg">
<path d="M225.709 142.113H220.504L220.479 140.793H224.96C225.874 140.793 226.653 140.662 227.296 140.399C227.939 140.137 228.426 139.748 228.756 139.231C229.094 138.707 229.264 138.063 229.264 137.302C229.264 136.523 229.099 135.88 228.769 135.372C228.438 134.856 227.943 134.475 227.283 134.229C226.623 133.984 225.794 133.861 224.795 133.861H220.91V151H219.349V132.516H224.795C225.734 132.516 226.576 132.609 227.321 132.795C228.066 132.981 228.701 133.273 229.226 133.671C229.75 134.069 230.148 134.572 230.419 135.182C230.698 135.783 230.838 136.502 230.838 137.34C230.838 138.102 230.669 138.791 230.33 139.409C229.992 140.019 229.513 140.518 228.896 140.907C228.286 141.288 227.554 141.525 226.699 141.618L225.709 142.113ZM225.595 151H220.009L220.809 149.667H225.595C226.509 149.667 227.287 149.515 227.931 149.21C228.582 148.897 229.082 148.452 229.429 147.877C229.776 147.301 229.949 146.616 229.949 145.82C229.949 145.118 229.797 144.487 229.492 143.929C229.188 143.37 228.722 142.93 228.096 142.608C227.469 142.278 226.674 142.113 225.709 142.113H222.472L222.497 140.793H227.08L227.359 141.263C228.189 141.347 228.912 141.605 229.53 142.037C230.157 142.46 230.639 142.998 230.978 143.649C231.325 144.301 231.498 145.016 231.498 145.795C231.498 146.912 231.248 147.86 230.749 148.639C230.258 149.409 229.568 149.997 228.68 150.403C227.799 150.801 226.771 151 225.595 151ZM239.278 132.516V151H237.717V132.516H239.278ZM252.682 133.62L246.284 151H244.659L251.641 132.516H252.771L252.682 133.62ZM258.497 151L252.086 133.62L251.997 132.516H253.127L260.122 151H258.497ZM257.354 144.475V145.82H247.541V144.475H257.354ZM283.833 146.455C283.833 145.947 283.748 145.494 283.579 145.097C283.41 144.699 283.13 144.343 282.741 144.03C282.36 143.709 281.844 143.412 281.192 143.142C280.549 142.862 279.745 142.587 278.78 142.316C277.857 142.054 277.024 141.766 276.279 141.453C275.534 141.14 274.895 140.78 274.362 140.374C273.837 139.968 273.435 139.494 273.156 138.952C272.877 138.402 272.737 137.763 272.737 137.035C272.737 136.324 272.889 135.677 273.194 135.093C273.499 134.509 273.926 134.005 274.476 133.582C275.035 133.159 275.691 132.833 276.444 132.604C277.206 132.376 278.039 132.262 278.945 132.262C280.24 132.262 281.357 132.507 282.297 132.998C283.244 133.489 283.977 134.153 284.493 134.991C285.018 135.821 285.28 136.752 285.28 137.784H283.718C283.718 136.98 283.528 136.265 283.147 135.639C282.775 135.004 282.233 134.509 281.522 134.153C280.82 133.789 279.961 133.607 278.945 133.607C277.929 133.607 277.075 133.764 276.381 134.077C275.695 134.382 275.174 134.792 274.819 135.309C274.472 135.816 274.299 136.383 274.299 137.01C274.299 137.45 274.383 137.856 274.552 138.229C274.722 138.592 274.997 138.935 275.378 139.257C275.767 139.57 276.279 139.866 276.914 140.146C277.549 140.416 278.331 140.674 279.262 140.92C280.244 141.191 281.116 141.491 281.878 141.821C282.639 142.151 283.283 142.532 283.807 142.964C284.332 143.387 284.73 143.882 285.001 144.449C285.271 145.016 285.407 145.676 285.407 146.43C285.407 147.183 285.246 147.86 284.924 148.461C284.611 149.053 284.167 149.557 283.591 149.972C283.024 150.386 282.352 150.704 281.573 150.924C280.803 151.144 279.961 151.254 279.047 151.254C278.226 151.254 277.409 151.148 276.596 150.937C275.784 150.725 275.039 150.399 274.362 149.959C273.693 149.51 273.156 148.935 272.75 148.232C272.352 147.53 272.153 146.692 272.153 145.719H273.702C273.702 146.497 273.858 147.153 274.172 147.687C274.485 148.22 274.899 148.651 275.416 148.981C275.94 149.312 276.516 149.553 277.142 149.705C277.777 149.849 278.412 149.921 279.047 149.921C280.02 149.921 280.862 149.777 281.573 149.489C282.292 149.201 282.847 148.799 283.236 148.283C283.634 147.758 283.833 147.149 283.833 146.455ZM292.768 132.516V151H291.207V132.516H292.768ZM310.565 149.667V151H300.98V149.667H310.565ZM301.437 132.516V151H299.876V132.516H301.437ZM319.208 148.702L325.036 132.516H326.737L319.856 151H318.599L319.208 148.702ZM313.191 132.516L318.993 148.702L319.627 151H318.358L311.49 132.516H313.191ZM336.662 133.62L330.264 151H328.639L335.621 132.516H336.751L336.662 133.62ZM342.477 151L336.066 133.62L335.977 132.516H337.107L344.102 151H342.477ZM341.334 144.475V145.82H331.521V144.475H341.334Z" fill="#BDBDBD"/>
<path d="M105.247 88.2734H107.608L117.853 112.687L128.117 88.2734H130.459L118.748 116H116.958L105.247 88.2734ZM104.523 88.2734H106.599L106.846 103.889V116H104.523V88.2734ZM129.146 88.2734H131.221V116H128.879V103.889L129.146 88.2734ZM137.058 88.2734L145.456 103.375L153.93 88.2734H156.634L146.637 105.545V116H144.295V105.545L134.278 88.2734H137.058ZM190.075 88.2734V116H187.713L171.774 92.3105V116H169.432V88.2734H171.774L187.751 111.963V88.2734H190.075ZM206.214 89.9302L196.616 116H194.179L204.652 88.2734H206.347L206.214 89.9302ZM214.936 116L205.319 89.9302L205.186 88.2734H206.88L217.373 116H214.936ZM213.222 106.212V108.23H198.502V106.212H213.222ZM221.82 88.2734H224.181L234.426 112.687L244.691 88.2734H247.033L235.321 116H233.531L221.82 88.2734ZM221.096 88.2734H223.172L223.42 103.889V116H221.096V88.2734ZM245.719 88.2734H247.795V116H245.452V103.889L245.719 88.2734ZM271.684 114V116H256.088V114H271.684ZM256.793 88.2734V116H254.451V88.2734H256.793ZM269.742 100.708V102.708H256.088V100.708H269.742ZM271.589 88.2734V90.292H256.088V88.2734H271.589ZM288.253 88.2734V116H285.91V88.2734H288.253ZM311.095 109.183C311.095 108.421 310.968 107.742 310.714 107.145C310.46 106.548 310.041 106.015 309.457 105.545C308.886 105.063 308.112 104.619 307.134 104.212C306.169 103.793 304.963 103.381 303.516 102.975C302.132 102.581 300.882 102.149 299.764 101.68C298.647 101.21 297.689 100.67 296.889 100.061C296.102 99.4517 295.499 98.7407 295.08 97.9282C294.661 97.103 294.451 96.1445 294.451 95.0527C294.451 93.9863 294.68 93.0151 295.137 92.1392C295.594 91.2632 296.235 90.5078 297.06 89.873C297.898 89.2383 298.882 88.7495 300.012 88.4067C301.155 88.064 302.405 87.8926 303.763 87.8926C305.706 87.8926 307.382 88.2607 308.791 88.9971C310.213 89.7334 311.311 90.73 312.085 91.9868C312.872 93.231 313.266 94.6274 313.266 96.1763H310.924C310.924 94.9702 310.638 93.8975 310.067 92.958C309.508 92.0059 308.696 91.2632 307.629 90.73C306.575 90.1841 305.287 89.9111 303.763 89.9111C302.24 89.9111 300.958 90.146 299.917 90.6157C298.888 91.0728 298.108 91.6885 297.574 92.4629C297.054 93.2246 296.794 94.0752 296.794 95.0146C296.794 95.6748 296.921 96.2842 297.175 96.8428C297.428 97.3887 297.841 97.9028 298.412 98.3853C298.996 98.855 299.764 99.2993 300.717 99.7183C301.669 100.125 302.843 100.512 304.24 100.88C305.712 101.286 307.02 101.737 308.162 102.232C309.305 102.727 310.27 103.298 311.057 103.946C311.844 104.581 312.441 105.323 312.847 106.174C313.253 107.024 313.456 108.015 313.456 109.145C313.456 110.274 313.215 111.29 312.733 112.191C312.263 113.08 311.596 113.835 310.733 114.458C309.883 115.08 308.873 115.556 307.705 115.886C306.55 116.216 305.287 116.381 303.916 116.381C302.684 116.381 301.459 116.222 300.24 115.905C299.022 115.587 297.905 115.099 296.889 114.438C295.886 113.766 295.08 112.902 294.47 111.849C293.874 110.795 293.575 109.538 293.575 108.078H295.899C295.899 109.246 296.134 110.23 296.603 111.03C297.073 111.83 297.695 112.477 298.469 112.972C299.257 113.467 300.12 113.829 301.059 114.058C302.011 114.273 302.964 114.381 303.916 114.381C305.376 114.381 306.639 114.166 307.705 113.734C308.784 113.302 309.616 112.699 310.2 111.925C310.797 111.138 311.095 110.224 311.095 109.183Z" fill="#878787"/>
<path d="M53.0288 29.9443V42.126H16.5806V29.9443H53.0288ZM21.5596 1.61719V72H5.80078V1.61719H21.5596ZM63.9053 1.61719V72H48.1948V1.61719H63.9053ZM119.5 59.8184V72H82.0366V59.8184H119.5ZM87.4023 1.61719V72H71.6435V1.61719H87.4023ZM114.666 29.9443V41.7393H82.0366V29.9443H114.666ZM119.548 1.61719V13.8472H82.0366V1.61719H119.548ZM169.197 59.8184V72H133.667V59.8184H169.197ZM139.033 1.61719V72H123.274V1.61719H139.033ZM218.894 59.8184V72H183.365V59.8184H218.894ZM188.73 1.61719V72H172.972V1.61719H188.73ZM278.163 35.2617V38.4038C278.163 43.7534 277.422 48.5552 275.939 52.8091C274.489 57.063 272.41 60.6885 269.703 63.6855C267.029 66.6826 263.838 68.9868 260.132 70.5981C256.458 72.1772 252.382 72.9668 247.902 72.9668C243.423 72.9668 239.33 72.1772 235.624 70.5981C231.918 68.9868 228.695 66.6826 225.956 63.6855C223.249 60.6885 221.154 57.063 219.672 52.8091C218.189 48.5552 217.448 43.7534 217.448 38.4038V35.2617C217.448 29.9121 218.189 25.1104 219.672 20.8564C221.154 16.5703 223.233 12.9287 225.908 9.93164C228.615 6.93457 231.821 4.64648 235.527 3.06738C239.233 1.45605 243.326 0.650391 247.806 0.650391C252.285 0.650391 256.378 1.45605 260.084 3.06738C263.79 4.64648 266.98 6.93457 269.655 9.93164C272.362 12.9287 274.457 16.5703 275.939 20.8564C277.422 25.1104 278.163 29.9121 278.163 35.2617ZM262.259 38.4038V35.165C262.259 31.5879 261.937 28.4297 261.292 25.6904C260.648 22.9189 259.713 20.5986 258.489 18.7295C257.264 16.8604 255.749 15.4585 253.945 14.5239C252.14 13.5571 250.094 13.0737 247.806 13.0737C245.421 13.0737 243.342 13.5571 241.57 14.5239C239.797 15.4585 238.299 16.8604 237.074 18.7295C235.882 20.5986 234.963 22.9189 234.319 25.6904C233.706 28.4297 233.4 31.5879 233.4 35.165V38.4038C233.4 41.9487 233.706 45.1069 234.319 47.8784C234.963 50.6177 235.898 52.938 237.122 54.8394C238.347 56.7407 239.846 58.1748 241.618 59.1416C243.423 60.1084 245.517 60.5918 247.902 60.5918C250.19 60.5918 252.221 60.1084 253.993 59.1416C255.798 58.1748 257.312 56.7407 258.537 54.8394C259.762 52.938 260.68 50.6177 261.292 47.8784C261.937 45.1069 262.259 41.9487 262.259 38.4038Z" fill="#878787"/>
</svg>
