<svg width="156" height="87" viewBox="0 0 156 87" fill="none" xmlns="http://www.w3.org/2000/svg">
<path d="M58.8015 69.6504V71.7598H51.3211V69.6504H58.8015ZM52.0535 63.7812V78H49.3679V63.7812H52.0535ZM60.7937 63.7812V78H58.1082V63.7812H60.7937ZM64.8738 72.8242V72.6191C64.8738 71.8444 64.9845 71.1315 65.2058 70.4805C65.4272 69.8229 65.7495 69.2533 66.1726 68.7715C66.5958 68.2897 67.1134 67.9154 67.7254 67.6484C68.3373 67.375 69.034 67.2383 69.8152 67.2383C70.6095 67.2383 71.3126 67.375 71.9246 67.6484C72.5431 67.9154 73.0639 68.2897 73.4871 68.7715C73.9103 69.2533 74.2325 69.8229 74.4539 70.4805C74.6752 71.1315 74.7859 71.8444 74.7859 72.6191V72.8242C74.7859 73.5924 74.6752 74.3053 74.4539 74.9629C74.2325 75.6139 73.9103 76.1836 73.4871 76.6719C73.0639 77.1536 72.5463 77.528 71.9343 77.7949C71.3224 78.0618 70.6225 78.1953 69.8347 78.1953C69.0535 78.1953 68.3536 78.0618 67.7351 77.7949C67.1166 77.528 66.5958 77.1536 66.1726 76.6719C65.7495 76.1836 65.4272 75.6139 65.2058 74.9629C64.9845 74.3053 64.8738 73.5924 64.8738 72.8242ZM67.4519 72.6191V72.8242C67.4519 73.2865 67.4975 73.7194 67.5886 74.123C67.6798 74.5267 67.8198 74.8815 68.0086 75.1875C68.1974 75.4935 68.4415 75.7344 68.741 75.9102C69.047 76.0794 69.4116 76.1641 69.8347 76.1641C70.2514 76.1641 70.6095 76.0794 70.909 75.9102C71.2084 75.7344 71.4526 75.4935 71.6414 75.1875C71.8367 74.8815 71.9799 74.5267 72.0711 74.123C72.1622 73.7194 72.2078 73.2865 72.2078 72.8242V72.6191C72.2078 72.1634 72.1622 71.737 72.0711 71.3398C71.9799 70.9362 71.8367 70.5814 71.6414 70.2754C71.4526 69.9629 71.2052 69.7188 70.8992 69.543C70.5997 69.3607 70.2384 69.2695 69.8152 69.2695C69.3985 69.2695 69.0405 69.3607 68.741 69.543C68.4415 69.7188 68.1974 69.9629 68.0086 70.2754C67.8198 70.5814 67.6798 70.9362 67.5886 71.3398C67.4975 71.737 67.4519 72.1634 67.4519 72.6191ZM81.2293 69.6016V78H78.6511V67.4336H81.0828L81.2293 69.6016ZM80.8484 72.3359H80.0574C80.0574 71.6003 80.1453 70.9232 80.3211 70.3047C80.5034 69.6862 80.7703 69.1491 81.1218 68.6934C81.4734 68.2311 81.9064 67.873 82.4207 67.6191C82.9415 67.3652 83.5437 67.2383 84.2273 67.2383C84.7026 67.2383 85.1388 67.3099 85.5359 67.4531C85.933 67.5898 86.2748 67.8079 86.5613 68.1074C86.8543 68.4004 87.0789 68.7845 87.2351 69.2598C87.3914 69.7285 87.4695 70.2917 87.4695 70.9492V78H84.8914V71.2129C84.8914 70.7181 84.8198 70.3307 84.6765 70.0508C84.5398 69.7708 84.3413 69.5755 84.0808 69.4648C83.8204 69.3477 83.5079 69.2891 83.1433 69.2891C82.7397 69.2891 82.3914 69.3704 82.0984 69.5332C81.812 69.6895 81.5743 69.9076 81.3855 70.1875C81.2032 70.4674 81.0665 70.7897 80.9754 71.1543C80.8907 71.5189 80.8484 71.9128 80.8484 72.3359ZM87.2742 71.8574L86.2097 72.0527C86.2163 71.3887 86.3074 70.7669 86.4832 70.1875C86.659 69.6016 86.9161 69.0905 87.2547 68.6543C87.5997 68.2116 88.0261 67.8665 88.534 67.6191C89.0483 67.3652 89.6407 67.2383 90.3113 67.2383C90.8321 67.2383 91.3009 67.3132 91.7176 67.4629C92.1407 67.6061 92.5021 67.8372 92.8015 68.1562C93.101 68.4688 93.3289 68.8757 93.4851 69.377C93.6479 69.8783 93.7293 70.4902 93.7293 71.2129V78H91.1316V71.2031C91.1316 70.6888 91.06 70.2949 90.9168 70.0215C90.7801 69.748 90.5815 69.5592 90.3211 69.4551C90.0607 69.3444 89.7547 69.2891 89.4031 69.2891C89.045 69.2891 88.7325 69.3574 88.4656 69.4941C88.2052 69.6243 87.9838 69.8066 87.8015 70.041C87.6258 70.2754 87.4923 70.5488 87.4011 70.8613C87.3165 71.1673 87.2742 71.4993 87.2742 71.8574ZM102.79 78.1953C101.989 78.1953 101.27 78.0651 100.632 77.8047C99.9936 77.5443 99.45 77.1829 99.0008 76.7207C98.558 76.252 98.2163 75.7083 97.9754 75.0898C97.741 74.4648 97.6238 73.7943 97.6238 73.0781V72.6875C97.6238 71.8737 97.741 71.1348 97.9754 70.4707C98.2097 69.8001 98.5418 69.224 98.9715 68.7422C99.4011 68.2604 99.9155 67.8893 100.514 67.6289C101.113 67.3685 101.774 67.2383 102.497 67.2383C103.246 67.2383 103.906 67.3652 104.479 67.6191C105.052 67.8665 105.531 68.2181 105.915 68.6738C106.299 69.1296 106.589 69.6764 106.784 70.3145C106.979 70.946 107.077 71.6458 107.077 72.4141V73.498H98.7957V71.7207H104.538V71.5254C104.525 71.1152 104.447 70.7409 104.303 70.4023C104.16 70.0573 103.939 69.7839 103.639 69.582C103.34 69.3737 102.953 69.2695 102.477 69.2695C102.093 69.2695 101.758 69.3542 101.471 69.5234C101.192 69.6862 100.957 69.9206 100.768 70.2266C100.586 70.526 100.449 70.8841 100.358 71.3008C100.267 71.7174 100.221 72.1797 100.221 72.6875V73.0781C100.221 73.5208 100.28 73.931 100.397 74.3086C100.521 74.6862 100.7 75.015 100.934 75.2949C101.175 75.5684 101.462 75.7832 101.794 75.9395C102.132 76.0892 102.516 76.1641 102.946 76.1641C103.486 76.1641 103.975 76.0599 104.411 75.8516C104.854 75.6367 105.238 75.321 105.563 74.9043L106.862 76.252C106.641 76.5775 106.341 76.89 105.964 77.1895C105.593 77.4889 105.143 77.7331 104.616 77.9219C104.089 78.1042 103.48 78.1953 102.79 78.1953Z" fill="white"/>
<path d="M52 22.1389V49.2222C52 50.7564 53.2436 52 54.7778 52H67.0794C68.6135 52 69.8571 50.7564 69.8571 49.2222V30.5714H84.1428V49.2222C84.1428 50.7564 85.3864 52 86.9206 52H99.2222C100.756 52 102 50.7564 102 49.2222V22.1389C102 21.2646 101.588 20.4412 100.889 19.9167L77 2L53.1111 19.9167C52.4116 20.4412 52 21.2646 52 22.1389Z" stroke="white" stroke-width="4" stroke-linecap="round" stroke-linejoin="round"/>
</svg>
