<svg width="35" height="35" viewBox="0 0 35 35" fill="none" xmlns="http://www.w3.org/2000/svg">
<path d="M17.5 0C7.85077 0 0 7.85077 0 17.5C0 27.1492 7.85077 35 17.5 35C27.1492 35 35 27.1492 35 17.5C35 7.85077 27.1492 0 17.5 0ZM13.0119 5.38462H21.9854C26.1922 5.38462 29.6154 8.80656 29.6154 13.0119V21.9854C29.6154 26.1922 26.1934 29.6154 21.9881 29.6154H13.0146C8.80784 29.6154 5.38462 26.1934 5.38462 21.9881V13.0146C5.38462 8.80784 8.80656 5.38462 13.0119 5.38462ZM13.0119 8.07692C10.2914 8.07692 8.07692 10.2926 8.07692 13.0146V21.9881C8.07692 24.7086 10.2926 26.9231 13.0146 26.9231H21.9881C24.7086 26.9231 26.9231 24.7074 26.9231 21.9854V13.0119C26.9231 10.2914 24.7074 8.07692 21.9854 8.07692H13.0119ZM23.7838 10.3196C24.2792 10.3196 24.6804 10.7208 24.6804 11.2162C24.6804 11.7116 24.2792 12.1154 23.7838 12.1154C23.2884 12.1154 22.8846 11.7116 22.8846 11.2162C22.8846 10.7208 23.2884 10.3196 23.7838 10.3196ZM17.5 10.7692C21.2113 10.7692 24.2308 13.7887 24.2308 17.5C24.2308 21.2113 21.2113 24.2308 17.5 24.2308C13.7887 24.2308 10.7692 21.2113 10.7692 17.5C10.7692 13.7887 13.7887 10.7692 17.5 10.7692ZM17.5 13.4615C16.4289 13.4615 15.4017 13.887 14.6444 14.6444C13.887 15.4017 13.4615 16.4289 13.4615 17.5C13.4615 18.5711 13.887 19.5983 14.6444 20.3556C15.4017 21.113 16.4289 21.5385 17.5 21.5385C18.5711 21.5385 19.5983 21.113 20.3556 20.3556C21.113 19.5983 21.5385 18.5711 21.5385 17.5C21.5385 16.4289 21.113 15.4017 20.3556 14.6444C19.5983 13.887 18.5711 13.4615 17.5 13.4615Z" fill="#565656"/>
</svg>
