<svg width="34" height="35" viewBox="0 0 34 35" fill="none" xmlns="http://www.w3.org/2000/svg">
<path d="M25.5884 33.754H2.13726C1.50917 33.754 1 33.2448 1 32.6167V14.0414C1 13.4133 1.50917 12.9041 2.13726 12.9041H7.38313C8.71473 12.9041 9.94868 12.2054 10.6338 11.0636L15.7712 2.50118C16.8798 0.653635 19.4908 0.478004 20.8367 2.16047C21.4711 2.95351 21.6757 4.00756 21.3838 4.98032L19.4459 11.44C19.2269 12.1697 19.7734 12.9041 20.5352 12.9041H29.207C31.7065 12.9041 33.522 15.281 32.8643 17.6924L29.2457 30.9605C28.7959 32.6099 27.2979 33.754 25.5884 33.754Z" stroke="#5D5D5D" stroke-width="2" stroke-linecap="round"/>
</svg>
