<svg  viewBox="0 0 64 64" fill="none" xmlns="http://www.w3.org/2000/svg">
<path fill-rule="evenodd" clip-rule="evenodd" d="M32 64C49.6732 64 64 49.6732 64 32C64 14.3269 49.6732 0 32 0C14.3269 0 0 14.3269 0 32C0 49.6732 14.3269 64 32 64ZM36 20C36 17.7909 34.2092 16 32 16C29.7909 16 28 17.7909 28 20V28H20C17.7909 28 16 29.7908 16 32C16 34.2092 17.7909 36 20 36H28V44C28 46.2092 29.7909 48 32 48C34.2092 48 36 46.2092 36 44V36H44C46.2092 36 48 34.2092 48 32C48 29.7909 46.2092 28 44 28H36V20Z" fill="white"/>
</svg>
