<svg width="65" height="59" viewBox="0 0 65 59" fill="none" xmlns="http://www.w3.org/2000/svg">
<path d="M61.5616 7.46588H49.8295V0H45.5633V7.46588H19.966V0H15.6998V7.46588H3.96767C3.11937 7.46686 2.3061 7.80429 1.70626 8.40413C1.10642 9.00397 0.769001 9.81724 0.768013 10.6655V55.4608C0.769001 56.3091 1.10642 57.1224 1.70626 57.7222C2.3061 58.322 3.11937 58.6595 3.96767 58.6605H61.5616C62.4099 58.6595 63.2232 58.322 63.823 57.7222C64.4228 57.1224 64.7603 56.3091 64.7612 55.4608V10.6655C64.7603 9.81724 64.4228 9.00397 63.823 8.40413C63.2232 7.80429 62.4099 7.46686 61.5616 7.46588ZM60.495 54.3942H5.03423V11.7321H15.6998V17.0649H19.966V11.7321H45.5633V17.0649H49.8295V11.7321H60.495V54.3942Z" fill="white"/>
</svg>
