<svg width="36" height="33" viewBox="0 0 36 33" fill="none" xmlns="http://www.w3.org/2000/svg">
<path d="M35.1451 15.3735L21.145 1.37344C20.9003 1.1287 20.5885 0.962017 20.2491 0.89448C19.9096 0.826943 19.5578 0.861583 19.238 0.994019C18.9183 1.12645 18.645 1.35074 18.4527 1.6385C18.2604 1.92627 18.1578 2.2646 18.1578 2.61069V8.81432C13.3773 9.25681 8.93394 11.4672 5.69725 15.013C2.46057 18.5589 0.663505 23.1848 0.657715 27.9858V30.6108C0.657687 30.9742 0.770811 31.3286 0.981383 31.6248C1.19195 31.9211 1.48953 32.1444 1.83279 32.2638C2.17605 32.3832 2.54797 32.3927 2.89691 32.2911C3.24586 32.1896 3.55452 31.9818 3.78004 31.6968C5.49442 29.658 7.59794 27.9812 9.96768 26.7645C12.3374 25.5478 14.9259 24.8155 17.5818 24.6105C17.669 24.5994 17.8877 24.5823 18.1578 24.5652V30.6108C18.1578 30.9569 18.2604 31.2952 18.4527 31.583C18.645 31.8707 18.9183 32.095 19.238 32.2274C19.5578 32.3599 19.9096 32.3945 20.2491 32.327C20.5885 32.2595 20.9003 32.0928 21.145 31.848L35.1451 17.848C35.3076 17.6855 35.4365 17.4927 35.5245 17.2804C35.6124 17.0681 35.6577 16.8405 35.6577 16.6107C35.6577 16.3809 35.6124 16.1534 35.5245 15.9411C35.4365 15.7288 35.3076 15.5359 35.1451 15.3735ZM21.6578 26.3862V22.7358C21.6578 22.5059 21.6126 22.2783 21.5247 22.066C21.4368 21.8536 21.3079 21.6607 21.1453 21.4982C20.9828 21.3357 20.7899 21.2068 20.5775 21.1188C20.3652 21.0309 20.1376 20.9857 19.9078 20.9857C19.4617 20.9857 17.6399 21.0721 17.1751 21.1345C12.4581 21.5689 7.96811 23.361 4.24831 26.2939C4.67028 22.4339 6.5013 18.8653 9.3907 16.2714C12.2801 13.6774 16.0248 12.2405 19.9078 12.2357C20.1376 12.2358 20.3652 12.1906 20.5775 12.1026C20.7899 12.0147 20.9828 11.8858 21.1453 11.7233C21.3079 11.5608 21.4368 11.3678 21.5247 11.1555C21.6126 10.9431 21.6578 10.7155 21.6578 10.4857V6.83531L31.4332 16.6107L21.6578 26.3862Z" fill="#5D5D5D"/>
</svg>
