<svg viewBox="0 0 60 43" fill="none" xmlns="http://www.w3.org/2000/svg">
    <path
        d="M51.34 42.64H8.5C6.24647 42.6374 4.086 41.741 2.49252 40.1475C0.89903 38.554 0.00264654 36.3935 0 34.14V8.5C0.00264654 6.24647 0.89903 4.086 2.49252 2.49252C4.086 0.89903 6.24647 0.00264654 8.5 0H51.34C53.5935 0.00264654 55.754 0.89903 57.3475 2.49252C58.941 4.086 59.8373 6.24647 59.84 8.5V34.14C59.8373 36.3935 58.941 38.554 57.3475 40.1475C55.754 41.741 53.5935 42.6374 51.34 42.64ZM8.5 3C7.04131 3 5.64236 3.57946 4.61091 4.61091C3.57946 5.64236 3 7.04131 3 8.5V34.14C3 35.5987 3.57946 36.9976 4.61091 38.0291C5.64236 39.0605 7.04131 39.64 8.5 39.64H51.34C52.7987 39.64 54.1976 39.0605 55.2291 38.0291C56.2605 36.9976 56.84 35.5987 56.84 34.14V8.5C56.84 7.04131 56.2605 5.64236 55.2291 4.61091C54.1976 3.57946 52.7987 3 51.34 3H8.5Z"
        fill="#E36E3D" />
    <path
        d="M29.9201 27.3999C28.0696 27.4028 26.2687 26.8025 24.7901 25.6899L1.44006 8.02991C1.27508 7.91413 1.13513 7.76628 1.02856 7.5952C0.921996 7.42412 0.851001 7.23332 0.819818 7.03419C0.788635 6.83506 0.797903 6.63169 0.847069 6.43623C0.896235 6.24076 0.984289 6.05721 1.10597 5.89653C1.22766 5.73585 1.38048 5.60135 1.5553 5.50105C1.73013 5.40074 1.92338 5.33671 2.1235 5.31275C2.32363 5.2888 2.52653 5.30543 2.72009 5.36164C2.91365 5.41785 3.09389 5.51249 3.25006 5.63991L26.6001 23.3199C27.5589 24.0357 28.7235 24.4224 29.9201 24.4224C31.1166 24.4224 32.2812 24.0357 33.2401 23.3199L56.5901 5.63991C56.7462 5.51249 56.9265 5.41785 57.12 5.36164C57.3136 5.30543 57.5165 5.2888 57.7166 5.31275C57.9167 5.33671 58.11 5.40074 58.2848 5.50105C58.4596 5.60135 58.6125 5.73585 58.7341 5.89653C58.8558 6.05721 58.9439 6.24076 58.993 6.43623C59.0422 6.63169 59.0515 6.83506 59.0203 7.03419C58.9891 7.23332 58.9181 7.42412 58.8116 7.5952C58.705 7.76628 58.565 7.91413 58.4001 8.02991L35.0501 25.6899C33.5714 26.8025 31.7705 27.4028 29.9201 27.3999Z"
        fill="#E36E3D" />
    <path
        d="M2.0901 38.4599C1.78587 38.4604 1.4887 38.3683 1.23801 38.1959C0.987328 38.0236 0.794983 37.779 0.686499 37.4948C0.578015 37.2106 0.558521 36.9001 0.630604 36.6045C0.702686 36.309 0.862939 36.0423 1.0901 35.8399L19.4901 19.4299C19.7871 19.1647 20.1774 19.0284 20.5749 19.0509C20.9725 19.0734 21.3449 19.2529 21.6101 19.5499C21.8753 19.847 22.0117 20.2372 21.9892 20.6348C21.9667 21.0324 21.7871 21.4047 21.4901 21.6699L3.0901 38.0799C2.81684 38.3285 2.4595 38.4643 2.0901 38.4599ZM57.7501 38.4599C57.3807 38.4643 57.0233 38.3285 56.7501 38.0799L38.3501 21.6699C38.0531 21.4047 37.8735 21.0324 37.851 20.6348C37.8285 20.2372 37.9649 19.847 38.2301 19.5499C38.4953 19.2529 38.8677 19.0734 39.2652 19.0509C39.6628 19.0284 40.0531 19.1647 40.3501 19.4299L58.7401 35.8399C58.9673 36.0423 59.1275 36.309 59.1996 36.6045C59.2717 36.9001 59.2522 37.2106 59.1437 37.4948C59.0352 37.779 58.8429 38.0236 58.5922 38.1959C58.3415 38.3683 58.0443 38.4604 57.7401 38.4599H57.7501Z"
        fill="#E36E3D" />
</svg>