<svg width="33" height="27" viewBox="0 0 33 27" fill="none" xmlns="http://www.w3.org/2000/svg">
<path d="M1.70909 0.00912794C1.17753 0.104574 0.701517 0.433083 0.385782 0.922387C0.0700473 1.41169 -0.0595495 2.02171 0.0255012 2.61825C0.110552 3.21478 0.403283 3.74897 0.839298 4.10329C1.27531 4.45762 1.81889 4.60305 2.35046 4.50761H8.36329L8.72406 5.63223L10.3676 11.2553L12.0111 16.8784C12.1714 17.4632 12.8529 18.003 13.374 18.003H27.4039C27.9651 18.003 28.6065 17.4632 28.7668 16.8784L32.0137 5.63223C32.1741 5.04742 31.9336 4.50761 31.3724 4.50761H13.5744L12.0512 1.2687C11.8889 0.896945 11.6384 0.582642 11.3272 0.360403C11.016 0.138165 10.6562 0.0166112 10.2874 0.00912794L2.27029 0.00912794C2.15028 -0.00304265 2.02953 -0.00304265 1.90952 0.00912794C1.82942 0.0037249 1.74911 0.0037249 1.66901 0.00912794L1.70909 0.00912794ZM14.3761 22.5015C13.2537 22.5015 12.3718 23.4912 12.3718 24.7508C12.3718 26.0103 13.2537 27 14.3761 27C15.4985 27 16.3804 26.0103 16.3804 24.7508C16.3804 23.4912 15.4985 22.5015 14.3761 22.5015ZM26.4018 22.5015C25.2794 22.5015 24.3975 23.4912 24.3975 24.7508C24.3975 26.0103 25.2794 27 26.4018 27C27.5242 27 28.406 26.0103 28.406 24.7508C28.406 23.4912 27.5242 22.5015 26.4018 22.5015Z" fill="#3B3D40"/>
</svg>
