<svg width="20" height="24" viewBox="0 0 20 24" fill="none" xmlns="http://www.w3.org/2000/svg">
<path d="M8.6715 0.335629C3.88979 0.335629 0 4.91554 0 10.5456C0 16.1757 3.88979 20.7556 8.6715 20.7556C10.1333 20.7556 11.5703 20.3472 12.7843 19.5596C12.8815 19.6974 12.9893 19.8243 13.1063 19.9388L15.5839 22.8559C15.8127 23.159 16.0917 23.4039 16.4037 23.5754C16.7157 23.747 17.0543 23.8416 17.3985 23.8536C17.7428 23.8655 18.0854 23.7945 18.4055 23.6448C18.7256 23.4952 19.0163 23.2701 19.2598 22.9833C19.5033 22.6966 19.6945 22.3543 19.8216 21.9775C19.9487 21.6006 20.009 21.1971 19.9989 20.7918C19.9888 20.3865 19.9084 19.9879 19.7627 19.6205C19.617 19.2531 19.409 18.9246 19.1516 18.6553L16.674 15.7381C16.5534 15.596 16.4205 15.4689 16.2776 15.3589C16.9466 13.9295 17.3678 12.2667 17.3678 10.5164C17.3678 4.88637 13.478 0.306458 8.69627 0.306458L8.6715 0.335629ZM8.6715 3.25277C12.1153 3.25277 14.8654 6.49079 14.8654 10.5456C14.8654 12.4709 14.2708 14.2504 13.2302 15.5631C13.2054 15.5923 13.1807 15.6214 13.1559 15.6506C13.0389 15.7651 12.9311 15.8921 12.8338 16.0298C11.7437 17.1967 10.2571 17.8676 8.64672 17.8676C5.2029 17.8676 2.45279 14.6296 2.45279 10.5748C2.45279 6.51996 5.2029 3.28194 8.64672 3.28194L8.6715 3.25277Z" fill="#808892"/>
</svg>
