<svg width="36" height="36" viewBox="0 0 36 36" fill="none" xmlns="http://www.w3.org/2000/svg">
<path d="M18 0C8.05645 0 0 8.05645 0 18C0 27.9435 8.05645 36 18 36C27.9435 36 36 27.9435 36 18C36 8.05645 27.9435 0 18 0ZM26.8258 22.725C27.1669 23.0661 27.1669 23.6177 26.8258 23.9589L23.9516 26.8258C23.6105 27.1669 23.0589 27.1669 22.7177 26.8258L18 22.0645L13.275 26.8258C12.9339 27.1669 12.3823 27.1669 12.0411 26.8258L9.17419 23.9516C8.83306 23.6105 8.83306 23.0589 9.17419 22.7177L13.9355 18L9.17419 13.275C8.83306 12.9339 8.83306 12.3823 9.17419 12.0411L12.0484 9.16694C12.3895 8.82581 12.9411 8.82581 13.2823 9.16694L18 13.9355L22.725 9.17419C23.0661 8.83306 23.6177 8.83306 23.9589 9.17419L26.8331 12.0484C27.1742 12.3895 27.1742 12.9411 26.8331 13.2823L22.0645 18L26.8258 22.725Z" fill="#3B3D40"/>
</svg>
