<svg width="72" height="63" viewBox="0 0 72 63" fill="none" xmlns="http://www.w3.org/2000/svg">
<g filter="url(#filter0_d_73_2206)">
<rect x="4.83325" y="0.215576" width="62.4833" height="54.6471" rx="10" fill="white"/>
<rect x="5.33325" y="0.715576" width="61.4833" height="53.6471" rx="9.5" stroke="#6295A8"/>
</g>
<g clip-path="url(#clip0_73_2206)">
<path d="M30.5291 30.9935V20.9224H32.7039V29.0093H36.8361V31.031L30.5291 30.9935Z" fill="#000100"/>
<path d="M38.3584 20.9224H40.5332V31.031H38.3584V20.9224Z" fill="#000100"/>
<path d="M49.1963 25.8645H51.3711V29.4212C50.3925 30.507 49.0876 31.106 47.3839 31.106C45.934 31.106 44.7741 30.6193 43.7955 29.6084C42.8168 28.635 42.3456 27.3995 42.3456 25.9019C42.3456 24.4043 42.8168 23.1688 43.8317 22.158C44.8104 21.1471 46.0065 20.6604 47.4202 20.6604C48.7976 20.6604 50.03 21.1471 51.0449 22.0831L49.9212 23.7679C49.4863 23.356 49.0876 23.094 48.7251 22.9816C48.3626 22.8319 47.9639 22.757 47.5289 22.757C46.6952 22.757 46.0065 23.0565 45.4266 23.6181C44.8829 24.1797 44.5929 24.9659 44.5929 25.9393C44.5929 26.9128 44.8466 27.6616 45.3903 28.2232C45.934 28.7847 46.5865 29.0843 47.3477 29.0843C48.1089 29.0843 48.7251 28.9345 49.2325 28.635L49.1963 25.8645Z" fill="#000100"/>
<path d="M60.143 30.9936L59.2368 28.8221H55.1772L54.271 30.9936H51.9512L56.1196 20.9224H58.2219L62.3904 30.9936H60.143ZM57.2433 23.9175L56.0109 26.8378H58.4394L57.2433 23.9175Z" fill="#000100"/>
<path d="M32.3052 36.1228H31.7252L30.4928 32.9404H31.0728L32.0152 35.3365L32.9576 32.9404H33.5376L32.3052 36.1228Z" fill="#000100"/>
<path d="M37.2348 32.9404V33.4271H35.6036V34.2882H37.0898V34.775H35.6036V35.6361H37.3073V36.1228H35.0962V32.9404H37.2348Z" fill="#000100"/>
<path d="M41.3307 32.9404H41.8382V36.1228H41.2944L39.5546 33.8015V36.1228H39.0471V32.9404H39.5546L41.3307 35.3365V32.9404Z" fill="#000100"/>
<path d="M44.9554 33.4271V36.1228H44.4479V33.4271H43.5417V32.9404H45.9341V33.4271H44.9554Z" fill="#000100"/>
<path d="M48.2539 35.3741C48.3989 35.5613 48.5801 35.6361 48.8338 35.6361C49.0876 35.6361 49.2688 35.5613 49.4138 35.3741C49.5588 35.1869 49.6313 34.9622 49.6313 34.6627V32.9031H50.1387V34.7002C50.1387 35.1494 50.03 35.4864 49.7763 35.7485C49.5225 36.0105 49.2325 36.1229 48.8338 36.1229C48.4351 36.1229 48.1451 36.0105 47.8914 35.7485C47.6377 35.4864 47.5289 35.1494 47.5289 34.7002V32.9031H48.0364V34.7002C48.0364 34.9622 48.1089 35.2243 48.2539 35.3741Z" fill="#000100"/>
<path d="M54.4522 33.9513C54.4522 34.4754 54.2348 34.8124 53.7998 34.9622L54.5972 36.1228H53.9448L53.2198 35.037H52.5311V36.1228H52.0237V32.9404H53.1836C53.6548 32.9404 53.981 33.0153 54.1623 33.2025C54.3435 33.3148 54.4522 33.6143 54.4522 33.9513ZM53.7635 34.4006C53.8723 34.2882 53.9085 34.1385 53.9085 33.9513C53.9085 33.7641 53.8723 33.6143 53.7273 33.5395C53.6186 33.4646 53.4373 33.4271 53.1473 33.4271H52.4949V34.5878H53.1473C53.4736 34.5503 53.6548 34.5129 53.7635 34.4006Z" fill="#000100"/>
<path d="M58.4394 32.9404V33.4271H56.8082V34.2882H58.2944V34.775H56.8082V35.6361H58.5119V36.1228H56.3008V32.9404H58.4394Z" fill="#000100"/>
<path d="M61.1942 33.3523C61.0492 33.3523 60.9405 33.3898 60.8317 33.4647C60.723 33.5395 60.6867 33.6144 60.6867 33.7642C60.6867 33.8765 60.723 33.9888 60.8317 34.0637C60.9405 34.1386 61.1217 34.2135 61.4479 34.2883C61.7742 34.3632 61.9916 34.4755 62.1366 34.6253C62.3179 34.775 62.3904 34.9622 62.3904 35.2618C62.3904 35.5238 62.2816 35.7485 62.1004 35.9357C61.9191 36.1229 61.6292 36.1977 61.3029 36.1977C60.8317 36.1977 60.3968 36.0105 59.998 35.6736L60.3243 35.2618C60.6505 35.5238 60.9405 35.6736 61.3029 35.6736C61.4842 35.6736 61.5929 35.6361 61.7017 35.5613C61.8104 35.4864 61.8467 35.3741 61.8467 35.2618C61.8467 35.1494 61.8104 35.0371 61.7017 34.9997C61.5929 34.9248 61.4479 34.8874 61.2304 34.8125C61.013 34.775 60.8317 34.7002 60.723 34.6627C60.6142 34.6253 60.5055 34.5504 60.3968 34.4755C60.2155 34.3258 60.143 34.1386 60.143 33.8391C60.143 33.5395 60.2518 33.3149 60.4693 33.1652C60.6505 33.0154 60.9405 32.9031 61.2304 32.9031C61.4117 32.9031 61.6292 32.9405 61.8104 33.0154C61.9916 33.0903 62.1729 33.1652 62.3179 33.2775L62.0641 33.6893C61.9554 33.6144 61.8467 33.5395 61.7017 33.5021C61.4842 33.3898 61.3392 33.3523 61.1942 33.3523Z" fill="#000100"/>
<path d="M17.7338 15.9055L9.36072 20.9224V30.9936L17.7338 36.0104L26.1069 30.9936V20.9224L17.7338 15.9055ZM21.6848 19.7618L24.5845 21.5214L21.6848 23.2811V19.7618ZM21.6848 24.2171L24.6208 25.9767L21.6848 27.7364V24.2171ZM17.4438 25.49L14.5078 23.7303L17.4438 21.9707V25.49ZM17.4438 29.9453L14.5078 28.1856L17.4438 26.426V29.9453ZM17.9875 26.426L20.9236 28.1856L17.9875 29.9453V26.426ZM17.9875 21.9707L20.9236 23.7303L17.9875 25.49V21.9707ZM17.9875 17.478L20.8873 19.2376L17.9875 20.9973V17.478ZM17.4438 17.478V20.9973L14.5441 19.2376L17.4438 17.478ZM14.2541 19.7243L17.1901 21.484L14.2541 23.2436V19.7243ZM14.2541 24.1796L17.1539 25.9393L14.2541 27.6989V24.1796ZM10.5206 21.9707L13.4204 23.7303L10.5206 25.49V21.9707ZM10.5206 26.4634L13.4204 28.2231L10.5206 29.9827V26.4634ZM13.7466 32.1916L10.8106 30.3945L13.7466 28.6349V32.1916ZM13.7466 27.7364L10.8106 25.9767L13.7466 24.2171V27.7364ZM13.7466 23.2436L10.8469 21.484L13.7466 19.7243V23.2436ZM14.2541 28.6723L17.1901 30.432L14.2541 32.1916V28.6723ZM17.4438 30.9187V34.438L14.5078 32.6783L17.4438 30.9187ZM17.9875 34.438V30.8813L20.9236 32.6409L17.9875 34.438ZM21.1773 32.1916L18.2413 30.432L21.1773 28.6723V32.1916ZM21.1773 27.7364L18.2413 25.9767L21.1773 24.2171V27.7364ZM21.1773 23.2436L18.2413 21.484L21.1773 19.7243V23.2436ZM21.6848 32.1916V28.6723L24.6208 30.432L21.6848 32.1916ZM24.8745 29.9453L21.9747 28.1856L24.8745 26.426V29.9453ZM24.8745 25.4526L21.9747 23.6929L24.8745 21.9333V25.4526Z" fill="url(#paint0_linear_73_2206)"/>
</g>
<defs>
<filter id="filter0_d_73_2206" x="0.833252" y="0.215576" width="70.4833" height="62.647" filterUnits="userSpaceOnUse" color-interpolation-filters="sRGB">
<feFlood flood-opacity="0" result="BackgroundImageFix"/>
<feColorMatrix in="SourceAlpha" type="matrix" values="0 0 0 0 0 0 0 0 0 0 0 0 0 0 0 0 0 0 127 0" result="hardAlpha"/>
<feOffset dy="4"/>
<feGaussianBlur stdDeviation="2"/>
<feComposite in2="hardAlpha" operator="out"/>
<feColorMatrix type="matrix" values="0 0 0 0 0 0 0 0 0 0 0 0 0 0 0 0 0 0 0.25 0"/>
<feBlend mode="normal" in2="BackgroundImageFix" result="effect1_dropShadow_73_2206"/>
<feBlend mode="normal" in="SourceGraphic" in2="effect1_dropShadow_73_2206" result="shape"/>
</filter>
<linearGradient id="paint0_linear_73_2206" x1="17.7176" y1="36.0096" x2="17.7176" y2="15.8819" gradientUnits="userSpaceOnUse">
<stop stop-color="#D91C5C"/>
<stop offset="1" stop-color="#F05A28"/>
</linearGradient>
<clipPath id="clip0_73_2206">
<rect width="53.2833" height="20.5916" fill="white" transform="translate(9.43323 16.0552)"/>
</clipPath>
</defs>
</svg>
