<svg width="94" height="36" viewBox="0 0 94 36" fill="none" xmlns="http://www.w3.org/2000/svg">
<path d="M0.594622 36V0.299998H15.1296C16.7956 0.911998 18.2746 1.983 19.5666 3.513C20.8586 5.043 21.5046 6.896 21.5046 9.072C21.5046 12.914 20.2466 15.6 17.7306 17.13V17.334C20.8586 19.068 22.4226 21.788 22.4226 25.494C22.4226 29.744 20.2636 33.246 15.9456 36H0.594622ZM7.53062 15.039H12.5796C14.0756 14.121 14.8236 12.727 14.8236 10.857C14.8236 8.987 14.1266 7.508 12.7326 6.42H7.53062V15.039ZM7.53062 30.084H12.7836C13.3956 29.642 13.9396 28.945 14.4156 27.993C14.9256 27.041 15.1806 26.089 15.1806 25.137C15.1806 24.185 14.9766 23.318 14.5686 22.536C14.1606 21.754 13.6506 21.176 13.0386 20.802H7.53062V30.084ZM26.6544 36V0.299998H33.6414V30.084H44.2494V36H26.6544ZM56.3077 30.084H60.5917C61.3397 29.268 61.8667 28.452 62.1727 27.636C62.5127 26.786 62.6827 25.545 62.6827 23.913V0.299998H69.6697V21.363C69.6697 23.097 69.6187 24.457 69.5167 25.443C69.4487 26.395 69.2447 27.568 68.9047 28.962C68.3267 31.444 66.7287 33.79 64.1107 36H52.7887C50.1707 33.858 48.5727 31.512 47.9947 28.962C47.4847 26.888 47.2297 24.355 47.2297 21.363V0.299998H54.2167V23.913C54.2167 25.545 54.3697 26.786 54.6757 27.636C55.0157 28.452 55.5597 29.268 56.3077 30.084ZM74.8395 36V0.299998H93.1485V6.42H81.8265V14.937H91.9245V20.853H81.8265V30.084H93.3525V36H74.8395Z" fill="white"/>
</svg>
