<svg width="161" height="62" viewBox="0 0 161 62" fill="none" xmlns="http://www.w3.org/2000/svg">
<path d="M0.290719 62V0.399996H25.3707C28.2454 1.456 30.7974 3.304 33.0267 5.944C35.2561 8.584 36.3707 11.7813 36.3707 15.536C36.3707 22.1653 34.2001 26.8 29.8587 29.44V29.792C35.2561 32.784 37.9547 37.4773 37.9547 43.872C37.9547 51.2053 34.2294 57.248 26.7787 62H0.290719ZM12.2587 25.832H20.9707C23.5521 24.248 24.8427 21.8427 24.8427 18.616C24.8427 15.3893 23.6401 12.8373 21.2347 10.96H12.2587V25.832ZM12.2587 51.792H21.3227C22.3787 51.0293 23.3174 49.8267 24.1387 48.184C25.0187 46.5413 25.4587 44.8987 25.4587 43.256C25.4587 41.6133 25.1067 40.1173 24.4027 38.768C23.6987 37.4187 22.8187 36.4213 21.7627 35.776H12.2587V51.792ZM45.2567 62V0.399996H57.3127V51.792H75.6167V62H45.2567ZM96.4232 51.792H103.815C105.106 50.384 106.015 48.976 106.543 47.568C107.13 46.1013 107.423 43.96 107.423 41.144V0.399996H119.479V36.744C119.479 39.736 119.391 42.0827 119.215 43.784C119.098 45.4267 118.746 47.4507 118.159 49.856C117.162 54.1387 114.404 58.1867 109.887 62H90.3512C85.8338 58.304 83.0765 54.256 82.0792 49.856C81.1992 46.2773 80.7592 41.9067 80.7592 36.744V0.399996H92.8152V41.144C92.8152 43.96 93.0792 46.1013 93.6072 47.568C94.1938 48.976 95.1325 50.384 96.4232 51.792ZM128.399 62V0.399996H159.991V10.96H140.455V25.656H157.879V35.864H140.455V51.792H160.343V62H128.399Z" fill="#00A6F8"/>
</svg>
